<svg id="Layer_1" data-name="Layer 1" xmlns="http://www.w3.org/2000/svg" xmlns:xlink="http://www.w3.org/1999/xlink" viewBox="0 0 275 59.64"><defs><style>.cls-1{fill:url(#linear-gradient);}.cls-2{fill:url(#linear-gradient-2);}.cls-3{fill:url(#linear-gradient-3);}.cls-4{fill:url(#linear-gradient-4);}.cls-5{fill:url(#linear-gradient-5);}.cls-6{fill:url(#linear-gradient-6);}.cls-7{fill:url(#linear-gradient-7);}.cls-8{fill:url(#linear-gradient-8);}.cls-9{fill:url(#linear-gradient-9);}.cls-10{fill:url(#linear-gradient-10);}</style><linearGradient id="linear-gradient" x1="14.26" y1="255.82" x2="62.42" y2="255.82" gradientUnits="userSpaceOnUse"><stop offset="0.06" stop-color="#f0d1d8"/><stop offset="0.67" stop-color="#aeb5db"/></linearGradient><linearGradient id="linear-gradient-2" x1="66.65" y1="261.53" x2="104.21" y2="261.53" xlink:href="#linear-gradient"/><linearGradient id="linear-gradient-3" x1="108.02" y1="261.5" x2="144.28" y2="261.5" xlink:href="#linear-gradient"/><linearGradient id="linear-gradient-4" x1="161.89" y1="255.82" x2="191.5" y2="255.82" gradientUnits="userSpaceOnUse"><stop offset="0.03" stop-color="#eebea5"/><stop offset="0.81" stop-color="#e38377"/></linearGradient><linearGradient id="linear-gradient-5" x1="192.6" y1="260.94" x2="210.91" y2="260.94" xlink:href="#linear-gradient-4"/><linearGradient id="linear-gradient-6" x1="211.23" y1="261.5" x2="247.25" y2="261.5" xlink:href="#linear-gradient-4"/><linearGradient id="linear-gradient-7" x1="249.1" y1="261.5" x2="285.12" y2="261.5" xlink:href="#linear-gradient-4"/><linearGradient id="linear-gradient-8" x1="10.14" y1="284.58" x2="161.29" y2="284.58" xlink:href="#linear-gradient-4"/><linearGradient id="linear-gradient-9" x1="161.29" y1="284.58" x2="285.14" y2="284.58" xlink:href="#linear-gradient"/><linearGradient id="linear-gradient-10" x1="82.56" y1="233.35" x2="105.37" y2="233.35" xlink:href="#linear-gradient-4"/></defs><title>logo2</title><path class="cls-1" d="M51.7,278.65l.36-34.18-.12-.13-9.73,34.31H34.5l-9.76-34.31-.12.13L25,278.65H14.26V233h15l9.07,30.06h.12L47.39,233h15v45.66Z" transform="translate(-10.14 -226.59)"/><path class="cls-2" d="M94,244.4v3.65h-.12a9.21,9.21,0,0,0-4.34-3.68,13.89,13.89,0,0,0-5.66-1.14,16.14,16.14,0,0,0-12.47,5.39,18.47,18.47,0,0,0-4.73,12.89,18.74,18.74,0,0,0,4.64,13,16.11,16.11,0,0,0,12.56,5.33,14.3,14.3,0,0,0,5.69-1.11,8.36,8.36,0,0,0,4.31-3.77H94v3.71h10.24V244.4Zm-2.41,23.35a8.69,8.69,0,0,1-12.23,0,8.39,8.39,0,0,1-2.44-6.09,8.71,8.71,0,0,1,2.35-6.23,8,8,0,0,1,6.11-2.59,8.32,8.32,0,0,1,6.18,2.47A8.47,8.47,0,0,1,94,261.51,8.63,8.63,0,0,1,91.56,267.75Z" transform="translate(-10.14 -226.59)"/><path class="cls-3" d="M144.28,265.64a18.23,18.23,0,0,1-18,14.12,18.38,18.38,0,0,1-13.1-31.2,17.34,17.34,0,0,1,12.86-5.33,18.39,18.39,0,0,1,11.68,4,17.16,17.16,0,0,1,6.45,10.45H133.86a7.79,7.79,0,0,0-7.65-4.82,7.19,7.19,0,0,0-5.79,2.62,9,9,0,0,0-2.1,6.08,8.83,8.83,0,0,0,2.2,6.15,7.64,7.64,0,0,0,5.93,2.53,7.85,7.85,0,0,0,7.41-4.55Z" transform="translate(-10.14 -226.59)"/><path class="cls-4" d="M182.56,243.23v35.42H170.9V243.23h-9V233H191.5v10.24Z" transform="translate(-10.14 -226.59)"/><path class="cls-5" d="M210.91,253.53a12,12,0,0,0-5.72,1.21q-2.35,1.44-2.35,5.09v18.82H192.6V244.4h9.61v3.65h.15c1.62-3.21,4.48-4.82,8.55-4.82Z" transform="translate(-10.14 -226.59)"/><path class="cls-6" d="M247,264.64H221.35q1,6.48,8,6.48a7.72,7.72,0,0,0,6.23-3.19h10.48a20.2,20.2,0,0,1-6.56,8.49,16.74,16.74,0,0,1-10.15,3.34,18.2,18.2,0,0,1-18.13-18.13,17.92,17.92,0,0,1,5.21-12.92,17.83,17.83,0,0,1,25.72,0,18.56,18.56,0,0,1,5.09,13.22A14.16,14.16,0,0,1,247,264.64Zm-10-6.89q-1.27-5.88-7.77-5.88t-7.77,5.88Z" transform="translate(-10.14 -226.59)"/><path class="cls-7" d="M284.88,264.64H259.22q1,6.48,8,6.48a7.71,7.71,0,0,0,6.23-3.19H284a20.3,20.3,0,0,1-6.57,8.49,16.72,16.72,0,0,1-10.15,3.34,18.2,18.2,0,0,1-18.13-18.13,18,18,0,0,1,5.21-12.92,17.83,17.83,0,0,1,25.72,0,18.56,18.56,0,0,1,5.09,13.22A14.16,14.16,0,0,1,284.88,264.64Zm-10-6.89q-1.26-5.88-7.77-5.88t-7.77,5.88Z" transform="translate(-10.14 -226.59)"/><path class="cls-8" d="M10.14,286.22v-3.28H161.29v3.28Z" transform="translate(-10.14 -226.59)"/><path class="cls-9" d="M161.29,286.22v-3.28H285.14v3.28Z" transform="translate(-10.14 -226.59)"/><path class="cls-10" d="M82.56,240.11s5.06-2.05,8-8.79,14.81-4.3,14.81-4.3S105.39,236.31,82.56,240.11Z" transform="translate(-10.14 -226.59)"/></svg>