<svg id="Layer_1" data-name="Layer 1" xmlns="http://www.w3.org/2000/svg" viewBox="0 0 269.78 49.22"><defs><style>.cls-1{fill:#fff;}.cls-1,.cls-2{stroke:#000;stroke-miterlimit:10;}.cls-2{fill:none;}</style></defs><title>logo</title><path class="cls-1" d="M87.5,276.18l.3-27.64-.1-.09-7.87,27.73H73.6l-7.89-27.73-.1.09.29,27.64H57.23V239.26H69.36l7.33,24.31h.1L84,239.26H96.17v36.92Z" transform="translate(-6.98 -233.59)"/><path class="cls-1" d="M121.68,248.49v2.95h-.09a7.39,7.39,0,0,0-3.51-3,11.16,11.16,0,0,0-4.58-.93,13.07,13.07,0,0,0-10.08,4.36,15,15,0,0,0-3.82,10.43,15.14,15.14,0,0,0,3.75,10.49,13,13,0,0,0,10.15,4.31,11.51,11.51,0,0,0,4.6-.9,6.77,6.77,0,0,0,3.49-3h.09v3H130V248.49Zm-1.94,18.88a7,7,0,0,1-9.89,0,6.73,6.73,0,0,1-2-4.92,7.07,7.07,0,0,1,1.9-5,6.45,6.45,0,0,1,4.94-2.09,6.68,6.68,0,0,1,5,2,6.85,6.85,0,0,1,2,5A7,7,0,0,1,119.74,267.37Z" transform="translate(-6.98 -233.59)"/><path class="cls-1" d="M162.37,265.66a14.74,14.74,0,0,1-14.52,11.42,14.86,14.86,0,0,1-10.59-25.23,14,14,0,0,1,10.4-4.31,14.9,14.9,0,0,1,9.44,3.19,13.93,13.93,0,0,1,5.22,8.46h-8.38a6.3,6.3,0,0,0-6.19-3.9,5.77,5.77,0,0,0-4.67,2.12,7.3,7.3,0,0,0-1.71,4.92,7.15,7.15,0,0,0,1.78,5,6.15,6.15,0,0,0,4.8,2,6.34,6.34,0,0,0,6-3.68Z" transform="translate(-6.98 -233.59)"/><path class="cls-1" d="M193.32,247.54v28.64h-9.43V247.54h-7.28v-8.28h23.94v8.28Z" transform="translate(-6.98 -233.59)"/><path class="cls-1" d="M216.25,255.87a9.82,9.82,0,0,0-4.63,1q-1.91,1.17-1.9,4.11v15.22h-8.28V248.49h7.77v2.95h.12q2-3.9,6.92-3.9Z" transform="translate(-6.98 -233.59)"/><path class="cls-1" d="M245.43,264.86H224.68q.78,5.24,6.48,5.24a6.24,6.24,0,0,0,5-2.59h8.48a16.39,16.39,0,0,1-5.31,6.87,13.54,13.54,0,0,1-8.21,2.7,14.72,14.72,0,0,1-14.66-14.66A14.48,14.48,0,0,1,220.71,252a14.4,14.4,0,0,1,20.8,0,15,15,0,0,1,4.12,10.69A11.49,11.49,0,0,1,245.43,264.86Zm-8.08-5.58c-.69-3.16-2.78-4.75-6.29-4.75s-5.6,1.59-6.28,4.75Z" transform="translate(-6.98 -233.59)"/><path class="cls-1" d="M276.06,264.86H255.31c.52,3.49,2.67,5.24,6.47,5.24a6.26,6.26,0,0,0,5.05-2.59h8.47a16.23,16.23,0,0,1-5.31,6.87,13.54,13.54,0,0,1-8.21,2.7,14.72,14.72,0,0,1-14.66-14.66A14.49,14.49,0,0,1,251.34,252a14.39,14.39,0,0,1,20.79,0,15,15,0,0,1,4.12,10.69A12.4,12.4,0,0,1,276.06,264.86ZM268,259.28c-.68-3.16-2.78-4.75-6.28-4.75s-5.6,1.59-6.29,4.75Z" transform="translate(-6.98 -233.59)"/><path class="cls-1" d="M53.9,282.31v-2.66H176.12v2.66Z" transform="translate(-6.98 -233.59)"/><path class="cls-1" d="M176.12,282.31v-2.66H276.26v2.66Z" transform="translate(-6.98 -233.59)"/><path class="cls-1" d="M112.46,245a13.5,13.5,0,0,0,6.47-7.11c2.37-5.45,12-3.47,12-3.47S130.92,242,112.46,245Z" transform="translate(-6.98 -233.59)"/><path class="cls-2" d="M41.25,250.38a13.22,13.22,0,0,1,1.51-6.14A21.52,21.52,0,1,0,50.41,263,13.26,13.26,0,0,1,41.25,250.38Z" transform="translate(-6.98 -233.59)"/><path class="cls-2" d="M20.92,266.94a7.38,7.38,0,0,1-.83,3.38A11.87,11.87,0,1,0,15.86,260,7.3,7.3,0,0,1,20.92,266.94Z" transform="translate(-6.98 -233.59)"/></svg>